<svg   id="chart"   width="1000"   height="500"   viewBox="0 0 1000 500"   xmlns="http://www.w3.org/2000/svg" >     		     <path d="  M0,500  h44.44444444444445  v--0.01964289654534923  q0,-4 -4,-4  h-36.44444444444445  q-4,0 -4,4  Z" fill="#6b71b7" /> <path d="  M55.55555555555556,500  h44.44444444444445  v-22.36251269459359  q0,-4 -4,-4  h-36.44444444444445  q-4,0 -4,4  Z" fill="#6b71b7" /> <path d="  M111.11111111111111,500  h44.44444444444445  v-34.83181187337249  q0,-4 -4,-4  h-36.44444444444445  q-4,0 -4,4  Z" fill="#6b71b7" /> <path d="  M166.66666666666669,500  h44.44444444444445  v-72.46364730064755  q0,-4 -4,-4  h-36.44444444444445  q-4,0 -4,4  Z" fill="#6b71b7" /> <path d="  M222.22222222222223,500  h44.44444444444445  v-71.15514587979021  q0,-4 -4,-4  h-36.44444444444445  q-4,0 -4,4  Z" fill="#6b71b7" /> <path d="  M277.77777777777777,500  h44.44444444444445  v-108.44181329849346  q0,-4 -4,-4  h-36.44444444444445  q-4,0 -4,4  Z" fill="#6b71b7" /> <path d="  M333.33333333333337,500  h44.44444444444445  v-143.39437108646223  q0,-4 -4,-4  h-36.44444444444445  q-4,0 -4,4  Z" fill="#6b71b7" /> <path d="  M388.8888888888889,500  h44.44444444444445  v-100.60928583801638  q0,-4 -4,-4  h-36.44444444444445  q-4,0 -4,4  Z" fill="#6b71b7" /> <path d="  M444.44444444444446,500  h44.44444444444445  v-153.05482761644157  q0,-4 -4,-4  h-36.44444444444445  q-4,0 -4,4  Z" fill="#6b71b7" /> <path d="  M500,500  h44.44444444444445  v-195.2000787154239  q0,-4 -4,-4  h-36.44444444444445  q-4,0 -4,4  Z" fill="#6b71b7" /> <path d="  M555.5555555555555,500  h44.44444444444445  v-153.52081031415025  q0,-4 -4,-4  h-36.44444444444445  q-4,0 -4,4  Z" fill="#6b71b7" /> <path d="  M611.1111111111111,500  h44.44444444444445  v-293.2334083890945  q0,-4 -4,-4  h-36.44444444444445  q-4,0 -4,4  Z" fill="#6b71b7" /> <path d="  M666.6666666666667,500  h44.44444444444445  v-336.3651572908399  q0,-4 -4,-4  h-36.44444444444445  q-4,0 -4,4  Z" fill="#6b71b7" /> <path d="  M722.2222222222223,500  h44.44444444444445  v-274.03025342216665  q0,-4 -4,-4  h-36.44444444444445  q-4,0 -4,4  Z" fill="#6b71b7" /> <path d="  M777.7777777777778,500  h44.44444444444445  v-357.1682574505895  q0,-4 -4,-4  h-36.44444444444445  q-4,0 -4,4  Z" fill="#6b71b7" /> <path d="  M833.3333333333334,500  h44.44444444444445  v-354.83016777095463  q0,-4 -4,-4  h-36.44444444444445  q-4,0 -4,4  Z" fill="#6b71b7" /> <path d="  M888.8888888888889,500  h44.44444444444445  v-345.2963699373637  q0,-4 -4,-4  h-36.44444444444445  q-4,0 -4,4  Z" fill="#6b71b7" /> <path d="  M944.4444444444445,500  h44.44444444444445  v-281.96758618475656  q0,-4 -4,-4  h-36.44444444444445  q-4,0 -4,4  Z" fill="#6b71b7" /> </svg>